<svg width="64" height="64" viewBox="0 0 64 64" fill="none" xmlns="http://www.w3.org/2000/svg">
  <circle cx="32" cy="32" r="30" fill="#FFF5F7" stroke="#F8A5B8" stroke-width="2"/>
  <!-- Top bun -->
  <path d="M16 30C16 22 22 16 32 16C42 16 48 22 48 30H16Z" stroke="#F8A5B8" stroke-width="2" fill="none"/>
  <!-- Sesame seeds -->
  <ellipse cx="28" cy="22" rx="1.5" ry="1" fill="#F8A5B8"/>
  <ellipse cx="36" cy="20" rx="1.5" ry="1" fill="#F8A5B8"/>
  <!-- Lettuce -->
  <path d="M14 33C17 31 20 35 24 32C28 29 32 35 36 32C40 29 44 34 48 32" stroke="#F8A5B8" stroke-width="2" stroke-linecap="round" fill="none"/>
  <!-- Cheese -->
  <path d="M14 37H50L47 37L44 40L40 37L36 37L33 41L30 37L26 37L23 40L20 37L17 37L14 39Z" stroke="#F8A5B8" stroke-width="1.5" fill="none" stroke-linejoin="round"/>
  <!-- Patty -->
  <rect x="15" y="43" width="34" height="4" rx="2" stroke="#F8A5B8" stroke-width="2" fill="none"/>
  <!-- Bottom bun -->
  <path d="M16 49H48C48 49 48 52 32 52C16 52 16 49 16 49Z" stroke="#F8A5B8" stroke-width="2" fill="none"/>
</svg>
